<?xml version="1.0" standalone="no"?>
<!DOCTYPE svg PUBLIC "-//W3C//DTD SVG 20010904//EN"
 "http://www.w3.org/TR/2001/REC-SVG-20010904/DTD/svg10.dtd">
<svg version="1.0" xmlns="http://www.w3.org/2000/svg"
 width="512.000000pt" height="512.000000pt" viewBox="0 0 512.000000 512.000000"
 preserveAspectRatio="xMidYMid meet">
<metadata>
Created by potrace 1.14, written by Peter Selinger 2001-2017
</metadata>
<g transform="translate(0.000000,512.000000) scale(0.100000,-0.100000)"
fill="#000000" stroke="none">
<path d="M524 4393 c-70 -36 -124 -131 -130 -228 -5 -89 8 -110 75 -125 53
-12 121 -52 121 -71 0 -5 7 -17 15 -26 8 -10 15 -20 14 -23 0 -3 5 -18 11 -35
19 -46 24 -92 22 -190 -2 -106 -3 -115 -13 -115 -4 0 -20 -5 -36 -12 -15 -6
-33 -12 -40 -14 -49 -10 -256 -129 -309 -178 -7 -6 -39 -35 -73 -65 -34 -30
-61 -58 -61 -62 0 -4 -12 -21 -26 -36 -14 -15 -40 -55 -57 -88 -26 -51 -31
-72 -32 -140 -3 -178 43 -235 295 -359 183 -90 193 -99 215 -206 15 -73 11
-238 -10 -365 -2 -16 -7 -52 -10 -80 -4 -27 -8 -57 -10 -65 -3 -8 -7 -35 -10
-60 -3 -25 -10 -67 -15 -95 -10 -52 -45 -320 -55 -415 -8 -83 -8 -277 -1 -345
4 -33 17 -98 28 -145 21 -88 93 -270 112 -282 6 -4 7 -8 3 -8 -5 0 -1 -7 7
-16 9 -8 16 -21 16 -29 0 -7 4 -15 8 -17 5 -2 23 -25 41 -51 49 -71 230 -248
242 -237 2 2 17 -7 32 -20 16 -14 31 -23 34 -22 3 2 9 0 12 -5 15 -22 192 -93
286 -115 154 -36 182 -36 1985 -37 1640 0 1768 1 1814 17 53 18 83 50 92 96 5
28 -12 86 -25 86 -3 0 -26 18 -51 40 -24 22 -50 40 -57 40 -7 0 -13 4 -13 9 0
5 -8 11 -17 14 -10 3 -47 22 -83 42 -66 37 -293 144 -340 160 -15 5 -49 19
-75 30 -17 8 -43 18 -58 24 -27 11 -37 31 -15 31 17 0 189 179 229 238 18 26
36 48 41 50 4 2 8 8 8 12 0 5 11 26 25 46 21 31 59 106 106 209 21 46 57 164
51 169 -3 3 0 6 7 6 7 0 10 4 7 9 -3 4 -1 23 4 42 16 55 30 142 35 219 2 25 4
45 5 45 5 0 6 241 2 249 -3 4 -6 33 -8 63 -4 70 -11 114 -23 147 -8 18 -7 26
0 26 8 0 8 4 1 13 -10 12 -28 85 -24 100 1 4 -3 7 -8 7 -5 0 -9 3 -8 8 3 12
-23 93 -47 148 -13 30 -22 54 -20 54 7 0 -95 191 -126 237 -16 23 -29 46 -29
51 0 6 -3 12 -7 14 -5 2 -28 30 -52 63 -80 107 -241 268 -313 312 -16 10 -28
21 -28 25 0 4 -7 8 -15 8 -8 0 -15 4 -15 8 0 5 -19 19 -42 32 -24 13 -45 26
-48 29 -3 3 -52 29 -110 58 -145 72 -321 129 -460 149 -19 3 -41 7 -49 10 -21
7 -204 18 -291 18 -74 -1 -202 -10 -250 -19 -14 -2 -41 -6 -60 -9 -82 -11
-292 -69 -370 -103 -76 -33 -245 -116 -250 -122 -6 -8 -40 -29 -60 -38 -15 -6
-125 -79 -147 -98 -7 -5 -18 -14 -25 -20 -107 -81 -259 -231 -335 -331 -54
-69 -79 -103 -90 -120 -7 -11 -24 -36 -38 -57 -42 -63 -110 -191 -148 -277
-75 -170 -126 -350 -123 -436 3 -74 -6 -67 -24 19 -15 75 -8 164 24 292 15 58
44 185 51 217 3 16 7 40 10 55 3 16 8 39 11 53 3 14 8 39 10 55 2 17 6 46 9
65 14 90 24 327 14 345 -3 6 -5 27 -5 48 1 20 -1 37 -4 37 -3 0 -7 12 -8 28
-3 32 -16 77 -44 149 -18 48 -19 59 -8 119 7 36 14 78 16 92 1 15 5 38 8 51 3
12 8 43 11 68 2 24 7 48 9 51 2 4 7 31 11 61 4 30 9 63 11 75 26 135 22 338
-8 436 -37 121 -159 249 -233 245 -11 -1 -32 -2 -46 -3 -14 -1 -41 -17 -61
-34 -35 -33 -86 -108 -73 -108 4 0 2 -7 -5 -15 -6 -8 -9 -19 -6 -24 4 -5 2
-12 -3 -15 -13 -9 -7 -121 7 -139 10 -12 52 -26 77 -27 18 0 75 -37 101 -67
28 -31 42 -63 61 -137 8 -29 11 -209 5 -220 -3 -5 -7 -32 -9 -60 -2 -27 -8
-55 -13 -61 -6 -7 -7 -15 -4 -18 3 -3 3 -11 -1 -17 -6 -9 -58 19 -75 41 -20
26 -156 90 -197 92 -18 1 -33 5 -33 9 0 4 -9 5 -20 3 -29 -5 -31 6 -20 83 30
216 32 331 6 442 -10 47 -64 160 -76 160 -5 0 -11 8 -14 18 -4 11 -18 25 -31
32 -14 7 -23 16 -20 19 9 8 -78 45 -112 47 -18 1 -45 -5 -59 -13z"/>
</g>
</svg>
